<svg width="60" height="61" viewBox="0 0 60 61" fill="none" xmlns="http://www.w3.org/2000/svg">
<path d="M4.5 53.7842C2.1 52.1842 9.16667 50.7842 13 50.2842C47 48.2842 55 52.7842 52 53.2842C49 53.7842 55.5 54.2842 56 56.2842C56.875 59.7842 22.5 60.2842 21 56.7842C20.0152 54.4864 7.5 55.7842 4.5 53.7842Z" fill="#F0F0F0"/>
<path d="M6.45546 31.4441C2.31686 38.5389 8.58776 47.9568 13.2364 52.8919C14.0905 53.7987 15.2992 54.2645 16.5449 54.2645H42.3293C44.2968 54.2645 46.0865 53.0895 46.7781 51.2476C52.161 36.9106 52.3266 23.8432 43.9461 20.0339C34.981 15.9588 12.1606 21.6639 6.45546 31.4441Z" fill="#FBFBFB"/>
<mask id="path-4-outside-1" maskUnits="userSpaceOnUse" x="3" y="23.739" width="10" height="10" fill="black">
<rect fill="white" x="3" y="23.739" width="10" height="10"/>
<path d="M6.45545 25.739C5.69477 27.6407 6.45544 29.8141 8.90049 29.8141L7.27046 31.4441C3.46705 29.9227 5.34612 27.0068 6.45545 25.739Z"/>
</mask>
<path d="M6.45545 25.739C5.69477 27.6407 6.45544 29.8141 8.90049 29.8141L7.27046 31.4441C3.46705 29.9227 5.34612 27.0068 6.45545 25.739Z" fill="#FBFBFB"/>
<path d="M8.90049 29.8141L10.0531 30.9667L12.8357 28.184H8.90049V29.8141ZM6.45545 25.739L7.9689 26.3444C8.26391 25.6068 7.98433 24.764 7.30699 24.3491C6.62965 23.9341 5.75181 24.0678 5.22873 24.6656L6.45545 25.739ZM7.27046 31.4441L6.66508 32.9575L7.66304 33.3567L8.42306 32.5967L7.27046 31.4441ZM8.90049 28.184C8.53389 28.184 8.31767 28.1041 8.19668 28.0341C8.07841 27.9656 7.99131 27.8727 7.92612 27.7456C7.78366 27.4679 7.72533 26.9533 7.9689 26.3444L4.94201 25.1336C4.42489 26.4264 4.36656 27.9493 5.02552 29.2337C5.73218 30.6111 7.12788 31.4441 8.90049 31.4441V28.184ZM5.22873 24.6656C4.63306 25.3464 3.59918 26.7068 3.40293 28.2968C3.29656 29.1586 3.43469 30.1145 4.03033 30.9993C4.60887 31.8588 5.51561 32.4977 6.66508 32.9575L7.87584 29.9306C7.12361 29.6298 6.83895 29.3337 6.73477 29.1789C6.6477 29.0496 6.61179 28.912 6.63844 28.6961C6.7082 28.1309 7.16852 27.3994 7.68217 26.8124L5.22873 24.6656ZM7.74788 28.6615L6.11785 30.2915L8.42306 32.5967L10.0531 30.9667L7.74788 28.6615Z" fill="#342D35" mask="url(#path-4-outside-1)"/>
<path d="M10.4182 49.5401C6.53622 44.3685 3.12472 37.154 6.45546 31.4441C12.1606 21.6639 34.981 15.9588 43.9461 20.0339C45.3435 20.6691 46.5032 21.5616 47.4408 22.6745C38.12 18.5284 14.6412 24.4217 8.75938 34.5048C6.05024 39.149 7.65579 44.7562 10.4182 49.5401Z" fill="#DCDCDC"/>
<path d="M26 53.2842L14.5 52.7842L11 49.2842C15.9171 50.9985 22.2683 51.07 25 49.7842L26 53.2842Z" fill="#59535A"/>
<path fill-rule="evenodd" clip-rule="evenodd" d="M8.05204 42.343C9.58363 45.965 12.1801 49.3933 14.4229 51.7743C14.9355 52.3185 15.6972 52.6345 16.5449 52.6345H42.3293C43.6554 52.6345 44.8122 51.846 45.252 50.6746C47.8996 43.6231 49.2107 37.013 48.8963 31.7908C48.582 26.5721 46.6926 23.0728 43.2716 21.5178C41.3556 20.6469 38.5347 20.2406 35.1618 20.3514C31.8214 20.4611 28.082 21.0731 24.4233 22.1114C20.7635 23.15 17.2334 24.6012 14.2973 26.3605C11.3424 28.1309 9.09904 30.1473 7.86345 32.2654C6.16692 35.1738 6.51196 38.701 8.05204 42.343ZM13.2364 52.8919C8.58776 47.9568 2.31686 38.5389 6.45546 31.4441C12.1606 21.6639 34.981 15.9588 43.9461 20.0339C52.3266 23.8432 52.161 36.9106 46.7781 51.2476C46.0865 53.0895 44.2968 54.2645 42.3293 54.2645H16.5449C15.2992 54.2645 14.0905 53.7987 13.2364 52.8919Z" fill="#342D35"/>
<path d="M27.1673 53.5678C23.8325 49.3644 23.3837 44.792 23.6259 42.8543L49.6513 34.7042C50.1474 37.6809 47.8437 47.2952 46.4744 52.2013C45.9765 53.9854 44.4062 55.0795 42.5539 55.0795H30.5415C29.2446 55.0795 27.9734 54.5838 27.1673 53.5678Z" fill="#FBFBFB"/>
<path d="M48.8708 35.965C47.0208 41.6344 45.3419 51.7842 40.8419 51.2842C37.2419 50.8842 37.0252 49.0575 36.6056 46.7843C35.6056 49.7843 34.1439 51.5478 30.851 51.5478C27.2988 51.5478 25.4499 49.0729 24.8114 47.443L24.6056 46.7842C24.6486 46.978 24.7167 47.2012 24.8114 47.443L27.1056 54.7842H44.6056L46.1056 53.2842C47.6056 50.2842 49.9876 32.5426 48.8708 35.965Z" fill="#DCDCDC"/>
<path d="M45 54.7842H29L26 51.2842C33.2 53.2842 42.5 52.7842 46.5 51.2842L45 54.7842Z" fill="#59535A"/>
<path fill-rule="evenodd" clip-rule="evenodd" d="M49.6513 34.7042C50.1014 34.7042 50.4663 35.0691 50.4663 35.5192C50.4663 40.088 49.6376 45.0506 48.6043 48.874C48.0879 50.7844 47.5129 52.4391 46.95 53.6318C46.6706 54.2239 46.3781 54.737 46.0764 55.1151C45.9255 55.3042 45.752 55.4854 45.5537 55.625C45.3571 55.7633 45.0868 55.8946 44.7612 55.8946H30.2134C28.9578 55.8946 27.618 55.4992 26.6751 54.4789C23.2601 50.7834 21.8618 44.8047 21.1339 39.7095C21.0703 39.2639 21.3799 38.8511 21.8255 38.7874C22.2711 38.7238 22.6839 39.0334 22.7476 39.479C23.4753 44.5728 24.8323 50.0829 27.8723 53.3726C28.4217 53.9672 29.2701 54.2645 30.2134 54.2645H44.6496C44.6841 54.2341 44.7355 54.1821 44.8022 54.0985C44.9908 53.8621 45.2204 53.4774 45.4759 52.9361C45.9827 51.8621 46.5283 50.3077 47.0307 48.4487C48.0349 44.7331 48.8363 39.9156 48.8363 35.5192C48.8363 35.0691 49.2012 34.7042 49.6513 34.7042Z" fill="#342D35"/>
<path fill-rule="evenodd" clip-rule="evenodd" d="M36.611 46.1144C37.0612 46.1144 37.4261 46.4793 37.4261 46.9294V55.0795C37.4261 55.5297 37.0612 55.8946 36.611 55.8946C36.1609 55.8946 35.796 55.5297 35.796 55.0795V46.9294C35.796 46.4793 36.1609 46.1144 36.611 46.1144Z" fill="#342D35"/>
<path fill-rule="evenodd" clip-rule="evenodd" d="M15.9329 44.5426C16.3508 44.3755 16.8252 44.5787 16.9923 44.9967C18.5952 49.004 20.1727 51.3439 21.702 52.8732C22.0203 53.1915 22.0203 53.7075 21.702 54.0258C21.3837 54.3441 20.8677 54.3441 20.5494 54.0258C18.8186 52.2951 17.136 49.7449 15.4789 45.6021C15.3117 45.1841 15.515 44.7098 15.9329 44.5426Z" fill="#342D35"/>
<path d="M28.4214 2.28424C31.1301 3.42028 32.6146 6.0824 32.9962 8.04331C35.3664 7.79264 37.9073 7.82034 40.2177 8.08536C40.5862 6.12064 42.0725 3.42842 44.8006 2.28424C46.3839 3.33444 46.9599 6.73737 45.8684 9.46328C46.3961 9.7029 46.8478 9.96697 47.2062 10.2537C49.6897 12.2405 49.6507 15.7724 49.2509 18.183C49.0511 19.3881 48.2593 20.389 47.2189 21.0292L40.4933 25.168C39.088 26.0328 37.3413 26.1306 35.8482 25.428L26.1286 20.854C25.0086 20.327 24.1162 19.3928 23.9009 18.1738C23.5721 16.3131 23.4719 13.7115 24.3858 11.8837C24.9032 10.8489 25.9523 10.0322 27.3337 9.41319C26.2692 6.69583 26.8478 3.32802 28.4214 2.28424Z" fill="#FBFBFB"/>
<path d="M30.9743 4.10579C30.2938 3.3608 29.445 2.71355 28.4214 2.28424C26.8478 3.32802 26.2692 6.69583 27.3337 9.41319C25.9523 10.0322 24.9032 10.8489 24.3858 11.8837C23.4719 13.7115 23.5721 16.3131 23.9009 18.1738C24.1162 19.3928 25.0086 20.327 26.1286 20.854L28.4272 21.9357C27.8173 21.3827 27.3773 20.673 27.2301 19.8402C26.8753 17.8322 26.7672 15.0246 27.7535 13.0521C28.1999 12.1592 29.0131 11.4169 30.0831 10.8137C30.548 10.5516 30.7758 9.99606 30.6404 9.47986C30.1403 7.57352 30.309 5.5187 30.9743 4.10579Z" fill="#DCDCDC"/>
<mask id="path-17-inside-2" fill="white">
<path fill-rule="evenodd" clip-rule="evenodd" d="M28.4214 2.28421C31.1301 3.42025 32.6146 6.08237 32.9962 8.04328C35.3664 7.79261 37.9073 7.82031 40.2177 8.08533C40.5862 6.12061 42.0725 3.42839 44.8006 2.28421C46.3839 3.33441 46.9599 6.73734 45.8685 9.46325C46.3961 9.70287 46.8478 9.96694 47.2062 10.2537C49.6897 12.2405 49.6507 15.7723 49.2509 18.1829C49.0511 19.3881 48.2593 20.3889 47.2189 21.0292L40.4933 25.168C39.088 26.0328 37.3413 26.1306 35.8482 25.428L26.1286 20.854C25.0086 20.327 24.1162 19.3927 23.9009 18.1738C23.5721 16.3131 23.4719 13.7115 24.3858 11.8837C24.9032 10.8489 25.9523 10.0322 27.3337 9.41316C26.2692 6.6958 26.8478 3.32799 28.4214 2.28421Z"/>
</mask>
<path d="M32.9962 8.04328L31.3962 8.35471L31.6817 9.82142L33.1677 9.66427L32.9962 8.04328ZM28.4214 2.28421L29.0518 0.781029L28.2473 0.443633L27.5204 0.925845L28.4214 2.28421ZM40.2177 8.08533L40.032 9.70475L41.54 9.87773L41.8198 8.38582L40.2177 8.08533ZM44.8006 2.28421L45.7017 0.925845L44.9747 0.443633L44.1702 0.781029L44.8006 2.28421ZM45.8685 9.46325L44.3552 8.85737L43.7763 10.3034L45.1944 10.9474L45.8685 9.46325ZM47.2062 10.2537L46.188 11.5265L47.2062 10.2537ZM49.2509 18.1829L50.859 18.4496L50.859 18.4496L49.2509 18.1829ZM47.2189 21.0292L48.0732 22.4174H48.0732L47.2189 21.0292ZM40.4933 25.168L41.3476 26.5562V26.5562L40.4933 25.168ZM35.8482 25.428L35.1542 26.9028H35.1542L35.8482 25.428ZM26.1286 20.854L25.4345 22.3289H25.4345L26.1286 20.854ZM23.9009 18.1738L25.506 17.8902H25.506L23.9009 18.1738ZM24.3858 11.8837L25.8437 12.6127L25.8437 12.6127L24.3858 11.8837ZM27.3337 9.41316L28.0003 10.9007L29.4182 10.2653L28.8514 8.8186L27.3337 9.41316ZM34.5962 7.73185C34.14 5.3879 32.3895 2.18085 29.0518 0.781029L27.791 3.78739C29.8707 4.65964 31.0891 6.77684 31.3962 8.35471L34.5962 7.73185ZM40.4035 6.46592C37.9804 6.18798 35.3196 6.15844 32.8248 6.42229L33.1677 9.66427C35.4132 9.42678 37.8342 9.45265 40.032 9.70475L40.4035 6.46592ZM44.1702 0.781029C40.8094 2.19052 39.0568 5.43253 38.6156 7.78485L41.8198 8.38582C42.1156 6.8087 43.3355 4.66626 45.4311 3.78739L44.1702 0.781029ZM47.3817 10.0691C48.0441 8.41469 48.1952 6.58473 47.9483 4.99513C47.7122 3.47555 47.0476 1.81862 45.7017 0.925845L43.8996 3.64258C44.1369 3.8 44.5519 4.36963 44.7268 5.49555C44.8909 6.55145 44.7842 7.7859 44.3552 8.85737L47.3817 10.0691ZM48.2245 8.98084C47.7319 8.58677 47.1546 8.2571 46.5425 7.9791L45.1944 10.9474C45.6375 11.1486 45.9637 11.3471 46.188 11.5265L48.2245 8.98084ZM50.859 18.4496C51.0752 17.1455 51.2096 15.4595 50.9154 13.7784C50.6187 12.0827 49.8647 10.293 48.2245 8.98084L46.188 11.5265C47.0313 12.2012 47.4995 13.1708 47.7042 14.3404C47.9114 15.5246 47.8263 16.8097 47.6428 17.9163L50.859 18.4496ZM48.0732 22.4174C49.4271 21.5842 50.5665 20.2132 50.859 18.4496L47.6428 17.9163C47.5356 18.5629 47.0914 19.1937 46.3646 19.6409L48.0732 22.4174ZM41.3476 26.5562L48.0732 22.4174L46.3646 19.6409L39.639 23.7798L41.3476 26.5562ZM35.1542 26.9028C37.1449 27.8397 39.4738 27.7093 41.3476 26.5562L39.639 23.7798C38.7021 24.3563 37.5377 24.4215 36.5423 23.9531L35.1542 26.9028ZM25.4345 22.3289L35.1542 26.9028L36.5423 23.9531L26.8227 19.3791L25.4345 22.3289ZM22.2957 18.4574C22.627 20.3324 23.9739 21.6415 25.4345 22.3289L26.8227 19.3791C26.0433 19.0124 25.6055 18.4531 25.506 17.8902L22.2957 18.4574ZM22.9278 11.1547C21.7699 13.4705 21.9524 16.5146 22.2957 18.4574L25.506 17.8902C25.1918 16.1116 25.1739 13.9524 25.8437 12.6127L22.9278 11.1547ZM26.6672 7.92564C25.1191 8.61933 23.6835 9.64333 22.9278 11.1547L25.8437 12.6127C26.1229 12.0544 26.7855 11.445 28.0003 10.9007L26.6672 7.92564ZM27.5204 0.925845C26.1821 1.8135 25.5179 3.45648 25.2784 4.96554C25.0279 6.54365 25.1706 8.36022 25.816 10.0077L28.8514 8.8186C28.4323 7.74874 28.3321 6.52272 28.4981 5.47664C28.6752 4.36152 29.087 3.7987 29.3224 3.64258L27.5204 0.925845Z" fill="#342D35" mask="url(#path-17-inside-2)"/>
<path fill-rule="evenodd" clip-rule="evenodd" d="M34.0768 3.464C33.5591 3.80914 33.283 4.41893 33.3653 5.03569L34.0897 10.4691C34.1977 11.2789 34.8885 11.8837 35.7054 11.8837H37.5166C38.3336 11.8837 39.0244 11.2789 39.1323 10.4691L39.8568 5.03569C39.939 4.41893 39.663 3.80914 39.1452 3.464L37.5152 2.37731C36.9677 2.01229 36.2544 2.01229 35.7068 2.37731L34.0768 3.464Z" fill="#342D35"/>
<path d="M30.4539 9.32662C31.0006 7.88176 30.1852 6.73477 29.5778 6.22797C29.4993 6.16253 29.3829 6.19503 29.3467 6.29057C28.8 7.73543 29.6155 8.88242 30.2229 9.38922C30.3013 9.45467 30.4177 9.42216 30.4539 9.32662Z" fill="#342D35"/>
<path d="M42.7681 9.32665C42.2214 7.88179 43.0368 6.7348 43.6443 6.228C43.7227 6.16256 43.8391 6.19506 43.8753 6.2906C44.422 7.73546 43.6066 8.88245 42.9992 9.38925C42.9207 9.4547 42.8043 9.42219 42.7681 9.32665Z" fill="#342D35"/>
<circle cx="41.0936" cy="16.3663" r="1.22252" fill="#342D35"/>
<circle cx="31.3134" cy="16.3663" r="1.22252" fill="#342D35"/>
<path d="M36.611 36.3342C14.4464 36.3342 19.5987 24.7882 24.9454 20.0339C28.4609 22.411 38.0487 25.739 48.2766 20.0339C53.6234 24.7882 58.7757 36.3342 36.611 36.3342Z" fill="#59535A"/>
<path fill-rule="evenodd" clip-rule="evenodd" d="M33.7319 36.2632C34.6359 36.3099 35.5948 36.3342 36.611 36.3342C58.7757 36.3342 53.6234 24.7882 48.2766 20.0339C48.2414 20.0536 48.2061 20.0731 48.1708 20.0926C52.7706 26.2384 54.0632 35.7567 33.7319 36.2632ZM25.0555 20.1073C25.0182 20.0827 24.9815 20.0583 24.9454 20.0339C24.9324 20.0455 24.9194 20.0571 24.9064 20.0688C24.9559 20.0817 25.0056 20.0946 25.0555 20.1073Z" fill="#716B72"/>
<path fill-rule="evenodd" clip-rule="evenodd" d="M23.9782 34.1066C22.3795 30.1256 24.3888 24.7711 26.9637 21.1549C26.162 20.7828 25.4828 20.3973 24.9454 20.0339C21.0653 23.4841 17.2875 30.5112 23.9782 34.1066Z" fill="#4F4950"/>
<path d="M29.4184 30.3892C29.0263 30.9388 27.8173 30.7486 26.718 29.9644C25.6187 29.1802 25.0454 28.0989 25.4375 27.5492C25.8296 26.9996 27.0386 27.1897 28.1379 27.974C29.2372 28.7582 29.8105 29.8395 29.4184 30.3892Z" fill="#2B242C"/>
<path d="M43.8412 30.3892C44.2333 30.9388 45.4423 30.7486 46.5416 29.9644C47.6409 29.1802 48.2142 28.0989 47.8221 27.5492C47.43 26.9996 46.2209 27.1897 45.1216 27.974C44.0223 28.7582 43.449 29.8395 43.8412 30.3892Z" fill="#2B242C"/>
<path fill-rule="evenodd" clip-rule="evenodd" d="M23.8623 18.8158C24.4193 18.3206 25.2411 18.2661 25.8585 18.6836C28.9924 20.8027 37.9148 23.9473 47.4826 18.6104C48.0883 18.2725 48.8415 18.3549 49.3598 18.8158C50.8282 20.1215 52.2873 21.8927 53.28 23.8489C54.2638 25.7876 54.875 28.0841 54.3478 30.3381C53.8007 32.6771 52.1121 34.6239 49.2097 35.9403C46.3593 37.2332 42.2621 37.9642 36.611 37.9642C30.96 37.9642 26.8628 37.2332 24.0124 35.9403C21.11 34.6239 19.4214 32.6771 18.8743 30.3381C18.3471 28.0841 18.9582 25.7876 19.9421 23.8489C20.9348 21.8927 22.3939 20.1215 23.8623 18.8158ZM48.2766 20.0339C38.0487 25.739 28.4609 22.411 24.9454 20.0339C19.5987 24.7882 14.4464 36.3342 36.611 36.3342C58.7757 36.3342 53.6234 24.7882 48.2766 20.0339Z" fill="#342D35"/>
<path d="M27.4676 13.0492C26.5821 12.7863 25.6991 12.2232 25.2008 11.0687L24.4198 13.2325C25.2881 13.9634 26.6007 14.1571 27.7021 14.0643C28.8107 13.9709 28.5342 13.3658 27.4676 13.0492Z" fill="#342D35"/>
<path d="M45.6435 13.0492C46.529 12.7863 47.412 12.2232 47.9103 11.0687L48.6913 13.2325C47.823 13.9634 46.5104 14.1571 45.409 14.0643C44.3004 13.9709 44.5769 13.3658 45.6435 13.0492Z" fill="#342D35"/>
<path d="M46.8 15.9686C47.1189 15.8839 47.4965 15.5341 48.0906 14.6429L48.9056 16.273C48.0834 16.9651 47.1475 16.9844 46.3787 16.729C45.378 16.3966 45.7809 16.2394 46.8 15.9686Z" fill="#342D35"/>
<path d="M26.0024 15.9686C25.6835 15.8839 25.306 15.5341 24.7119 14.6429L23.8969 16.273C24.719 16.9651 25.6549 16.9844 26.4237 16.729C27.4244 16.3966 27.0215 16.2394 26.0024 15.9686Z" fill="#342D35"/>
<path d="M18.1558 31.2624C17.194 29.4826 16.7088 27.001 17.8657 24.109L13.7906 26.554C13.7906 29.8318 15.6215 32.0111 17.3197 32.8463C18.3181 33.3374 18.6848 32.2412 18.1558 31.2624Z" fill="#342D35"/>
<path d="M18.4882 38.3221C16.1499 35.7294 10.9589 30.5873 12.9756 26.554L8.9005 29.814C8.9005 33.7859 14.815 38.2955 17.9095 39.4122C18.7563 39.7178 19.0911 38.9906 18.4882 38.3221Z" fill="#342D35"/>
<path d="M11.8884 39.2076C9.87264 37.3807 6.13945 34.5212 8.0855 30.6291L5.64045 35.5192C5.64045 39.3174 9.08232 40.6572 11.3831 40.6842C12.2833 40.6948 12.5555 39.8121 11.8884 39.2076Z" fill="#342D35"/>
<path d="M26.8577 43.8053C25.3207 43.3032 23.1864 42.5064 22.4061 40.1451L22.4061 43.5026C22.8594 45.3599 25.1617 45.4472 26.8286 45.097C27.756 44.9021 27.7584 44.0996 26.8577 43.8053Z" fill="#342D35"/>
<path d="M26.1039 47.4316C25.2528 47.0643 23.9634 46.4873 23.5708 45.2994L23.5708 48.5594C23.8023 49.508 25.2393 48.8379 26.1502 48.2857C26.5391 48.0499 26.5216 47.6118 26.1039 47.4316Z" fill="#342D35"/>
<path d="M44.4764 43.8053C46.0134 43.3032 48.1477 42.5064 48.9281 40.1451L48.928 43.5026C48.4747 45.3599 46.1724 45.4472 44.5055 45.097C43.5781 44.9021 43.5757 44.0996 44.4764 43.8053Z" fill="#342D35"/>
<path d="M45.2302 47.4316C46.0813 47.0644 47.3708 46.4873 47.7633 45.2994L47.7633 48.1133C47.5348 49.0494 46.1324 48.6442 45.2201 48.2253C44.8068 48.0355 44.8125 47.6119 45.2302 47.4316Z" fill="#342D35"/>
<path fill-rule="evenodd" clip-rule="evenodd" d="M36.9726 3.43129C37.0676 3.33106 37.2258 3.32678 37.3261 3.42174C37.5437 3.62796 37.8625 3.98239 38.1223 4.3866C38.376 4.78131 38.6038 5.26952 38.572 5.73018C38.5193 6.49402 38.1584 9.20342 37.986 10.4535C37.9671 10.5903 37.841 10.6859 37.7042 10.667C37.5674 10.6481 37.4718 10.522 37.4907 10.3852C37.6645 9.12519 38.022 6.43797 38.0732 5.69577C38.0934 5.40341 37.9424 5.03149 37.7017 4.65695C37.4671 4.29192 37.1756 3.96799 36.9822 3.78471C36.8819 3.68976 36.8777 3.53152 36.9726 3.43129Z" fill="#4C454D"/>
</svg>
